<svg xmlns="http://www.w3.org/2000/svg" xmlns:xlink="http://www.w3.org/1999/xlink" xml:space="preserve" id="Layer_1" x="0" y="0" baseProfile="basic" version="1.1" viewBox="0 0 4000 4000"><style>.st1,.st2{clip-path:url(#SVGID_2_);fill:#3271e0}.st2{fill:#fff}.st3{fill:#3271e0}.st4{fill:#fff}</style><defs><path id="SVGID_1_" d="M0 0h4000v4000H0z"/></defs><clipPath id="SVGID_2_"><use xlink:href="#SVGID_1_" style="overflow:visible"/></clipPath><path d="M1921.1 996.4c-370.9 0-734.1 189.9-911.3 414.3l327.6 1497.6h1585.4c134.2-195.9 215.8-437 215.8-692.4 0-673.6-544-1219.5-1217.5-1219.5" style="clip-path:url(#SVGID_2_);fill:#fddb4c"/><path d="M1317.6 2909.1 993.9 1429.6l-10.7 2.3c-27 5.8-44.2 32.4-38.5 59.5l304.5 1425.5c.4 3.2 1.1 6.2 2 9.2v.1c7.3 24.1 29.7 41.6 56.1 41.6h1578.6c21.7 0 39.3-17.6 39.3-39.3v-19.4H1317.6z" class="st1"/><path d="M1488.7 2948.5h-77c-5.3 0-9.6-4.3-9.6-9.6s4.3-9.6 9.6-9.6h77c5.3 0 9.6 4.3 9.6 9.6s-4.3 9.6-9.6 9.6M1605.2 2948.5h-77c-5.3 0-9.6-4.3-9.6-9.6s4.3-9.6 9.6-9.6h77c5.3 0 9.6 4.3 9.6 9.6.1 5.3-4.3 9.6-9.6 9.6" class="st2"/><path d="M2390.4 2913.2c-2 0-3.9-.9-5.2-2.5-1.3-1.6-1.8-3.6-1.4-5.6l69.4-348H2322c-2 0-3.9-.9-5.2-2.5-1.3-1.6-1.8-3.6-1.4-5.6l11.7-58.7H2532c2 0 3.9.9 5.2 2.5 1.3 1.6 1.8 3.6 1.4 5.6-.1.6-11.1 53.7-11.3 54.5l-70.7 354.8c-.6 3.2-3.4 5.5-6.6 5.5h-59.6zM2738.4 2913.2c-3 0-5.6-2.1-6.5-5.2l-.4-1.4 80.1-410.8c.6-3.2 3.4-5.5 6.6-5.5H2951l-12.3 61.4c-.6 3.2-3.4 5.4-6.6 5.4h-57.5l-69.9 350.7c-.6 3.2-3.4 5.5-6.6 5.5h-59.7zM2497.3 2913.2c-2 0-3.9-.9-5.2-2.5-1.3-1.6-1.8-3.6-1.4-5.6l81.7-409.4c.6-3.2 3.4-5.4 6.6-5.4h54.1c3.4 0 6.2 2.4 6.7 5.8l29.6 194.3 109-196.6c1.4-2.6 4.2-3.5 6.2-3.5h7.4l-35 168.3-90 159.3c-1.2 2.2-3.5 3.5-5.9 3.5H2628c-3.5 0-6.3-2.6-6.7-6l-14.1-125.6-43.7 217.9c-.6 3.2-3.4 5.4-6.6 5.4h-59.6zM2959.6 2489.4h11.1l-2.1 52.1 18.8-52.1h11.1l-27.8 68.3h-10.5zM3004.3 2489.4h8.5l6.9 41.4 7.9-41.4h10.1l-13.6 68.3h-8.1l-6.9-41.3-8.3 41.3h-10.1z" class="st1"/><path d="M2488.1 2353.3c-38.1-7.1-57.3-7.8-68-11.5-39.9-44.6-105.5-92.1-108.2-93.8l-1.3-.8-1.4-.7c-2.4-1.2-48-28.2-104.4-34.9-38.4-4.6-66.1-29.1-86.2-47.1-2.2-1.9-4.3-3.8-6.3-5.5-14.5-12.6-57.4-59.7-81.1-86.1-.3.5-.5 1.1-.8 1.6-2.5 4.7-4.9 8.6-7.2 12.3-5.9 9.6-11 17.8-16.6 39.8-.5 2.1-1 4-1.5 5.8l-.4 1.4c-.4 1.6-.8 3.1-1.2 4.5l-.1.2-.1.5c-.5 1.6-.9 3.1-1.3 4.6l-.3.8-.1.2c-.2.7-.4 1.3-.6 2 1.5 1.2 2.8 2.5 4 4 8.7-33.2 17.7-48.9 17.7-48.9s49.2 56.5 70.8 75.3c21.6 18.8 55.9 53.1 108 59.3 52.1 6.2 95.1 32.2 95.1 32.2s69.7 49.7 106.9 94c0 0 28.4 15 76.5 14.4 40.5-.5 64.1 15 63.1 50.3-.4 13.5-16.6 23.6-37.2 31.1-.2 1.5-.5 3.1-.9 4.7l-26.3 7.3s2.5-1.7 4.9-5.3c-19.4 4.9-39.2 7.9-52.2 9.4-33.1 3.8-30.5-18.3-65.9-10.7-35.5 7.5-59.9 14-80.2-15.6-20.3-29.6-67.4-30.7-97-34-4.1-.5-11.6-1.7-21.7-3.6-.8 1.3-1.2 2.1-1.2 2.1l-44.4-8.3s.9-.8 2.3-2.3c-15.8-3.2-33.2-6.8-50.7-10.4-2.3 1.9-4.5 3.6-6.9 5.1l-72.6-15.2s3.4-1.8 8.4-4.9c-20.9-4.5-38.3-8.2-48.4-10.4-4.2 15.8-6.8 25.8-6.7 26 0 0-.9-.2-2.1.2l1.3.3c21.4 4.4 209.5 42.9 239.6 46.2 3.4.4 7.1.7 10.9 1.1 24.6 2.4 55.2 5.4 66 21.2 18.1 26.5 44.8 39.1 79.3 37.6 9.9-.4 16.6-3.9 30.2-6.8 3.7-.8 6.8-1.2 9.2-1.3 2.7-.1 3 0 7 1.5 6.8 2.6 21.3 8.5 38.8 7.7 2.7-.1 5.5-.4 8.4-.7 12.8-1.5 34.5-2.7 63.7-11.8 16.4-5.2 33.8-10.4 43.4-17.2 21.2-15.1 28-29.3 28.3-45.1.6-49.3-47.1-65.2-82.3-71.8z" class="st3"/><path d="M1978.1 2272.1c4-13.1 7.8-27 11-41-3.5 13-7.2 27-11 41z" class="st3"/><path d="M1946.3 2392.3c0-.2 2.6-10.2 6.7-26-6.1-1.3-9.5-2.1-9.5-2.1s18.9-40.7 34.6-92.2c3.7-14 7.5-27.9 11-41 2.4-10.7 4.5-21.6 6.1-32.3 2.8-18.8 6.2-34.8 9.7-48-1.2-1.5-2.5-2.8-4-4 .2-.6.4-1.3.6-2l.1-.2.3-.8c.4-1.4.9-2.9 1.3-4.6l.1-.5.1-.2c.4-1.4.8-2.9 1.2-4.5l.4-1.4c.5-1.8 1-3.8 1.5-5.8 5.6-22 10.7-30.2 16.6-39.8 2.3-3.8 4.7-7.6 7.2-12.3.3-.5.5-1 .8-1.6 4.3-8.8 7-19.8 9.4-30.4.4-1.7.8-3.5 1.2-5.2v-.2c2.3-10 6-26.9 9.3-31.6 4.7-6.8 23.4-20.2 37.1-30 2.6-1.9 5.2-3.8 7.8-5.6 6.3-4.5 13.5-9.8 20-15.2 6.1-5 13.5-11.6 21.9-19.6 1.6-1.5 3.2-3.1 4.8-4.6l2.4-2.3c3.1-3 6.1-6.1 9-8.9l2.1-2.1c4.6-4.6 8.6-8.8 11.6-12 6.1-1.1 12-1.9 15.9-2.1l31.4 14.3c.9.4 1.8.8 2.7 1.1 4.5 2.3 8.6 4.4 11.9 6.1l.4.2.1.1 2.4 1.2 4.1 2.2c6.2 3.2 13.2 4 19.9 2.3 1.6-.4 3.1-1 4.6-1.7l38.9-18c3.8-1.8 7.1-4.4 9.8-7.6 11-13.5 25-31.5 29.2-40.3 2.8-5.9 5.1-15.1 2-26.9 4.4-6.6 9-14.9 12.3-24.1.8-2.2 1.5-4.5 2.1-6.7 1.8-6.5 2.6-13 2.6-19.2 0-4.4-.5-8.8-1.4-12.9-2.5-11.5-12.1-20.2-23.8-21.5-3.5-.4-6.9-.1-10.1.7-1 .3-1.9.6-2.9.9-3.7-3.4-8.3-5.7-13.3-6.8-4.4-.9-8.9-.8-13.2.3-11.4 3-17.9 11.5-22.6 20.4-3.9-3.7-9.8-10.5-16.8-20.3l-.4-.8s0-.1-.1-.1c-.2-.5-.4-1-.7-1.6 0-.1 0-.1-.1-.2-.3-.6-.5-1.2-.7-1.8 0-.1-.1-.1-.1-.2-.3-.7-.5-1.4-.8-2.1 0-.1 0-.1-.1-.2-.3-.8-.6-1.5-.9-2.3 0 0-.1-.2-.1-.3-.3-.8-.6-1.6-.8-2.4l-.1-.3c-.3-.9-.6-1.7-.8-2.5l-.2-.5c-.3-.8-.5-1.6-.8-2.4l-.2-.5c-.2-.8-.5-1.5-.7-2.3l-.2-.6v-.2c-.2-.6-.4-1.3-.5-2l-.2-.7v-.2c-.1-.5-.3-1.1-.4-1.7l-.1-.2-.2-.7v-.2c-.1-.5-.2-1.1-.4-1.8l-.2-.8c-.1-.7-.3-1.5-.4-2.2 0-.2 0-.4-.1-.6-.1-.6-.1-1.5-.2-3.1 0-1.4-.1-3 0-4.7.2-27.8 7.2-77.5 19.9-101.3l1-1.1c1.7 2.8 3.3 6.2 4.7 10.3 2.7 8.3 9.3 14.8 17.6 17.6 5.1 1.7 10.5 1.8 15.6.5 3.2-.8 6.2-2.2 8.9-4.2 3.6-2.6 8.9-7.6 11.9-16.5 6.3-3 13.9-9.3 16.8-23 .8-3.5 1.3-7.9 1.7-13.4 1.2-16.5-1.6-33.9-4.4-46l.3-.6c.3-.7.8-1.6 1.2-2.6.1-.2.1-.3.2-.5 1.3-3.4 2.2-6.9 2.6-10.7v-.6c.2-1.6.2-3.2.2-4.7 0-1.9-.1-3.9-.4-6-.1-.6-.2-1.2-.3-1.9l-.6-3c-.1-.5-.3-1-.4-1.5v-.2c-.2-.9-.5-1.7-.8-2.7-.2-.5-.3-1-.5-1.6-.3-.8-.6-1.6-.9-2.5l-.6-1.5c-.3-.8-.6-1.6-1-2.4l-.1-.2-.4-1c-.4-.9-.8-1.8-1.1-2.7l-.1-.1-.4-.8c-.5-1-.9-2.1-1.4-3.1l-.2-.3c-1-2.1-2.1-4.4-3.3-6.7l-.2-.4c-.5-1-.9-1.8-1.3-2.5l-.3-.6-.1-.2c-.3-.6-.7-1.2-1-1.8l-.4-.7c-7-21.9-14.8-34-17.3-37.5-5-8.4-15.4-17.8-36.6-21.3-3.9-.7-7.8-.5-11.6.5-.1 0-12.5 3.2-38.4 7.4l-1.5.2c-10.8 1.7-20 3.2-29.4 5.7-13.9 3.7-26.4 9-41 17.7-4.4-1.1-10.1-2.5-17.2-4.2-10.2-2.5-22.5-1.7-39.8 2.9-21.8 5.7-46.9 16.2-56.3 20.2l-1 .4-.4.2-.4.2c-.3.1-.5.2-.7.3-3.3 1.2-6 2.8-9.8 5.1-3.8 2.4-9.6 5.9-17.1 9.9-1.2.6-2.5 1.3-3.8 2-2.8 1.4-5.6 2.7-8.3 4-4.7 2.1-9.5 4.1-14.2 5.9-2 .8-4.1 1.6-6.6 2.7-.5.2-1.1.5-1.7.7l-.3.1c-1.6.7-3.2 1.5-4.8 2.3l-.4.2c-.5.3-1 .5-1.5.8-2.3 1.2-4.4 2.3-6.4 3.4-.3.1-.5.3-.8.5-1.8 1-3.7 2.1-5.6 3.3-.6.4-1.2.7-1.8 1.1l-.3.2c-1.5.9-3 1.9-4.5 2.9l-.5.3c-.5.3-1 .7-1.6 1-2 1.3-4.1 2.7-6.1 4.2-.4.3-.8.6-1.2.8l-.5.4c-1.5 1.1-3.1 2.2-4.7 3.3-.8.6-1.7 1.3-2.6 1.9l-3.9 3-.6.5c-.6.5-1.3 1-1.9 1.5-1.9 1.5-3.9 3-5.8 4.6-.6.5-1.2 1-1.9 1.5l-.8.7c-1.2 1-2.4 1.9-3.6 2.9-1 .8-2.1 1.7-3.1 2.6-1.1.9-2.2 1.8-3.2 2.7l-.6.5c-.8.7-1.6 1.4-2.5 2.1-1.8 1.6-3.6 3.1-5.4 4.7-7.4 6.5-15.2 13.6-23.2 21.3-14.8 4-46.2 13.7-76.4 29.7-3.9 2.1-96 51.2-128.2 78-1.6 1.4-3.6 3-5.6 4.8l-.3.3-.1.1c-1.2 1.1-2.5 2.2-3.8 3.3l-.3.3-.4.4-2 1.7-.4.3-.5.5-2 1.8-.8.7-.1.1-2.2 2-.3.3c-2.6 2.3-5.3 4.8-8.1 7.4l-.8.7-2.5 2.3-.8.7-.4.4-2.2 2-.2.1-.4.4c-2.8 2.6-5.7 5.2-8.6 7.9l-.4.4-.5.4-1.4 1.3-1.1 1-.5.5-.4.3-1.7 1.6-.7.7-.9.8-.7.6-.6.5-1.4 1.3-2.1 2-1.1 1.1-2.4 2.3-.9.8-2.3 2.1-1.5 1.4-.6.6-.9.8-1 .9-1.3 1.2-.6.6-.4.4-3.2 3-.5.5-.5.4-1.5 1.4-.5.5-1.7 1.6-.7.7-.4.4-1.7 1.6-.4.4-1 .9-.8.7-.2.2-3.9 3.7-1.9 1.7-.6.6-.3.2-.2.2-.2.2-.8.7-1.2 1.1-.1.1-81.8 21.4c-5.4 1.4-10.2 4.4-13.8 8.6l-54.9 62.9c-3.7.9-8.4 2.1-13.7 3.4l-.4.1-.4.1c-9.7 2.4-21.4 5.3-33.1 8.3l-.6.2-3.7.9-.4.1-.8.2c-8.7 2.2-17.2 4.3-24.6 6.2h-.1l-3.7.9h-.2c-2.8.7-5.6 1.4-8 2.1-7 1.8-11.1 2.9-14 3.9-7.8 2-41.9 9.6-72.1 16.4l-2.8.6-3.7.8-2.2.5c-37 8.3-80.5 18.1-122 27.6l5.9 26.9c14.9-3.4 30-6.8 45-10.2l-9.6 101.1s21 161 31.1 178.5c10.2 17.5 72.8 111.7 88.3 136.7 15.5 25 33.4 33.7 33.4 33.7s-12.9-23.5-25.3-58.2c-12.5-34.7-41.5-98.7-51.4-162-9.9-63.3-20.4-90.8-18-111.5 2.4-20.7 24.6-98.1 25.9-101.8.8-2.3 7.5-22 12.2-36.1 38.6-8.7 67.2-15.2 72.9-16.7.6-.2 1-.3 1-.3.4-.3 5.1-1.6 12.3-3.4 2.4-.6 5.1-1.3 8-2.1l-7.6 150s-5.4 34.9 15.3 75.4c20.6 40.4 91.9 129 91.9 129l59.9 79.3s-11.1-55.2-38-115.2-29.5-57.1-29.5-57.1-33.6-51.5-38.3-69.3c-4.7-17.8 0-89.4.3-92.8.2-2.7 9.5-81.3 13.6-116.2 13-3.2 22.1-5.5 22.1-5.5l60.6-69.5 88.3-23.1c-14.9 42.6-27.4 109.8-22.5 197.6 10.2 179.5 85.2 257.1 85.2 257.1s-48.6-194-43-274.9c0 0 30.2 77 72.3 109.6 42.1 32.6 49 63.2 49 63.2s10.6-10.6-8.6-41.3c-19.2-30.7-32.5-47.4-55.9-98.2-23.4-50.9-38.4-82.7-29.4-142.1 7.8-51 20.2-115.6 42.3-153.3 1.9-1.7 3.7-3.2 5.2-4.5 22.5-18.7 86.2-55 123.5-74.8 30.5-16.2 62.8-25.4 73.6-28.3 2.4-.6 3.7-.9 3.7-.9 9.1-8.7 18.3-17.3 27.6-25.4 1.7-1.5 3.5-3 5.2-4.5 1-.8 2-1.7 2.9-2.5 1-.9 2.1-1.7 3.1-2.6 1-.8 2-1.6 2.9-2.4 1.1-.9 2.3-1.9 3.4-2.8.8-.7 1.7-1.4 2.5-2 1.8-1.5 3.6-2.9 5.5-4.3l2.4-1.8c1.2-.9 2.5-1.9 3.7-2.8l2.4-1.8c1.4-1 2.9-2.1 4.3-3.1.5-.4 1-.8 1.6-1.1 1.6-1.1 3.3-2.2 4.9-3.3-12.4 58.7 13.7 88.2 13.7 88.2-11.6-33.2 21-93.5 30.9-110.5 1.1-.5 2.3-1 3.4-1.5 3.3-1.5 6.4-3 9.3-4.5 1.5-.7 2.9-1.5 4.2-2.2 13.5-7.2 21.9-13.1 23.2-13.4.1 0 .2-.1.4-.1.4-.1.9-.4 1.7-.7.2-.1.6-.2.8-.4 8.3-3.5 32.9-14 53.7-19.4 10.6-2.8 20.3-4.3 26.2-2.8 19.7 4.9 28.7 7 28.7 7 17.9-11.8 30.1-17.2 43.1-20.6 8.5-2.2 17.3-3.6 28.3-5.4 27.9-4.5 40.9-7.9 40.9-7.9 15 2.5 17.8 8.3 18.3 10.2-.8.9-1.7 1.7-2.6 2.6-.5.4-1 .9-1.6 1.5-14.3 12.6-33.4 18.8-44.2 21.5-1.4.1-2.6.3-3.6.5-.6.2-1.2.4-1.5.6h.1c.7-.1 1.4-.3 2.2-.5-.8.2-1.5.3-2.2.5-2.2.4-3.4.6-3.4.6 2.8 2.4 5.9 4.5 9.3 6.2-4.4-.1-34.4 1.1-54.8 45.9 0 0-1.6 24.3 14.8 39.4 6.5 6 12.8 9.5 18.2 11-17.7 20.8-50.4 69.1-50.4 143.6 0 0 .3 65.3 49.1 129.6 0 0 27 19.8 41.9 19.2l-2.1-14.5s28 4.4 47.5-4.1c2.9-1.3 6.8-3.3 11.3-6 .9 3 1.3 6.3 0 9.2-3.6 7.6-25.6 34.6-25.6 34.6l-38.9 18s-1.6-.8-4.2-2.2c-.7-.4-1.5-.8-2.4-1.3-.2-.1-.4-.2-.5-.3-4.2-2.2-10-5.2-16.1-8.3h-.1l.3.5-21.3-9.7c-.4-.3-.8-.6-1.3-.8-11-6.1-65.5-25.5-82.1-31.4-18.2-9.4-68.3-26.7-141 17.8 0 0-94.6-83.6-61.6-209.6 0 0-38.7 31.4-59.6 36.9s-44.4-11.8-43.1-32.3c0 0 71.1 2.6 96.9-14.2 0 0-33.2-11.4-36-26.3-2.8-14.9 25.9-24.7 25.9-24.7s-12.2-8-51.8 11.3c-39.6 19.3-49.7 32-49.7 32s-35.3 52.8 46 77.4c0 0 31.1-9.3 46.2-19.9 0 0-45.2 151.6 78.2 234.3 0 0 60.4-53.8 122.5-72.1 14.8 5.1 35.9 14.9 54.4 24-3.1 3.2-7.4 7.7-12.5 12.9-.7.7-1.3 1.4-2 2.1l-8.7 8.7c-.8.7-1.5 1.5-2.3 2.2-1.5 1.5-3.1 3-4.6 4.5-7 6.7-14.1 13.1-20.3 18.2-5.5 4.5-12 9.3-18.7 14.1-20.2 14.6-43 30-51.5 42.2-6.4 9.2-10.1 25.9-13.6 41.4l-1.2 5.1c-2.3 10.2-4.7 19.4-7.7 25.3-8.2 15.6-14.7 24.3-26.1 58.2-7.8 23.3-10 30.6-10.1 30.8l-20.6-79.8c-2.2 9-6 30.6-7.2 49.2-.1 1.7-.2 3.4-.3 5-.2 4.9-.2 9.4.1 13.3.1 1.3.2 2.5.4 3.7.2 1.1.3 2.3.5 3.6 2.4 17.1 5.5 41.5 1.3 59.5-.3 1.3-.6 2.5-1 3.8-.6 1.8-1.1 3.5-1.6 5.2-2.1 7.1-3.4 12.8-4.6 21.3-.1.7-.2 1.3-.3 2-.2 1.4-.4 2.8-.5 4.3l-.3 2.4c-.2 1.6-.4 3.3-.5 5.2-.1.9-.2 1.9-.3 2.8-.2 1.9-.4 4-.6 6.2-.1 1.1-.2 2.2-.3 3.4-.6 7-1.2 15.2-2 25-1.3 17-3.7 30.8-6.3 41.8-6.3-39.4-14.6-71.9-25.9-101.1-5.9-21-17.1-61.5-29.9-88.2-18.5-38.7-39.3-113.1-26.5-222.7 9.8-84.2 12.7-149.7 12.7-149.7s-39.5 41.1-50.8 158c-11.3 116.9 8.5 200.1 8.5 200.1s26.3 83.5 43.9 112.4c17.6 28.9 49.6 244.5 63.8 294.5 14.2 49.9 55.1 181.7 96.7 259.6 7 13 20 9.7 28.9 7.4 7-1.8 38.5-8.9 38.5-8.9 20.8-3.9 28.4 4.6 29.2 7.5.1.2.1.4.1.6 0 .2 0 .3.1.4v.1c15.5-3.2 26.9-.8 35.1 4 1.3.7 2.4 1.6 3.6 2.4.6.4 1.1.9 1.6 1.3 1 .9 2 1.8 2.9 2.8.4.5.9 1 1.3 1.5 5.4 6.5 19.4 26.3 20 32 1.5 14.1-12 31.1-12 31.1l-16.4 4.3c.2-52.5-47.7-47-47.7-47 30 20.6 28.2 41.9 23.8 53.9-2.9 1.7-6.2 3.3-10 4.9-3 1.2-6.3 2.4-9.9 3.6-1.8.6-3.7 1.2-5.6 1.7-3.9 1.1-8 2.3-12.4 3.4-8 2.1-35.3-1.9-67.1-4.8-38.6-3.5-63 4.1-95.1-24.9-.1-.1-18.8 7.1-36.8-.6-8.1-3.5-21.7-12.1-33.4-30.9-16.5-26.4-25-42.2-41.7-74 0 0 42.4 1.7 64.4-21.7 25.8-27.4 16.9-83.4 16.9-83.4-11.6 15.3-42.8 56.6-59.3 57.6-11.7.7-35.2 4.6-50.3-1.8-7.6-13.4-33.7-55.1-44.4-69.8 33.3-.6 60.4-15.1 60.4-15.1 40.2-26.4 58-124.8 58-124.8s-77.2 93.1-159.7 68.2c-8.6-10.2-94.1-141.2-97.8-149.9l-24.3-175.1c-2.4 20.1-27.2 179.6-27.2 179.6 1.3 8.5 57.1 76.8 57.1 76.8s-34.8 18.2-67.2 18.1c-29.4-22.6-85.4-41.2-85.4-41.2-2.6-18.3-25.2-70.5-40.8-108.9-15.6-38.4-74.7-140.2-74.7-140.2 4 32.5 43.9 146.1 43.9 146.1-3.6 28.7 1.7 97.1 3.7 119.9.4 4.7 3.1 8.8 7.2 11 22.6 12.3 43.2 19 57.2 27.3-22.8 2.7-41.7 5-50.2 6.8-7.8 1.7-53.8 13.7-70.8 18.7-34.8-2.3-62.7-12.5-74-17.7l16 73.2 4.8-1.5 1.8-.6 7.1-2.2.2-.1 1.6-.5 4.7-1.4 1.1-.3 1.7-.5 4.3-1.3 3.4-1 .3-.1 3.8-1.2 3.3-1 .5-.1 1.9-.6 3.6-1.1c.1 0 .1 0 .2-.1 2.9-.9 5.6-1.7 8.3-2.5l.3-.1.6-.2 3.9-1.1.2-.1.3-.1c4-1.2 7.9-2.3 11.7-3.4 16-4.7 29.3-8.4 40.5-11.3l1.1-.3c10.3-2.7 18.9-4.8 27.3-6.6 7.7-1.6 215.8-37.6 219.2-40.8 6.8 7.4 122.2 172.5 122.2 172.5l.6 1.1.4.7.4.7c1.2 2.1 2.3 4.2 3.5 6.3l1.3 2.4.3.6 2.4 4.4 1.8 3.3 2.1 3.9.3.6 1.4 2.6 2.1 4c1.1 2 2.1 3.9 3.1 5.8l.3.5.9 1.6 2.1 3.9.9 1.6 2.1 4.1c20.5 44.9 42.8 91.5 66.1 115 26.2 26.4 52.1 31.2 68.2 29.8 0 0 15.1 9.5 36.8 14.4 18 4.1 39-.2 60 2.1 40.5 4.4 30.5 4 75.5 5.8 5.2.2 19.4-2.1 23.3-3.3 2.2-.6 4.2-1.3 6.2-1.9 4.4-1.4 8.2-2.8 11.8-4.2 4.5-1.8 8.6-3.7 12.2-5.8l34.9-9.1c5.8-1.5 10.9-4.9 14.6-9.5 4.8-6 20.3-27.6 17.8-51.1-1.3-12.2-18.1-37-26.2-46.8-.7-.9-1.5-1.8-2.3-2.6-1.6-1.7-3.3-3.4-5.1-5-.9-.8-1.9-1.6-2.9-2.3-2-1.5-4.1-3-6.3-4.3-8.1-4.8-20.7-9.7-37.9-9.3-8.7-5.8-22-9.4-42.4-5.6-2 .4-35.2 7.2-38.4 8.6-1.8.8-3.6 1.5-5.2 2.1-35.2-45.2-75.1-189.7-86.2-229-2.2-8-10.8-59-12.1-65.2-15.4-74.8-3.1-86.1 2.2-87.7 1.6 0 2.5.1 2.5.1zm288.7-921.7zm79.5 106.9c-1.6 15.2-4.1 10-5.2 6.7-1.2-3.3-1.8-24-11.9-32.8 0 0-4.6.6-7.5 5.3 4.6 9.9 7.6 23 8.7 36.7 1.4 17-2.9 12.9-2.9 12.9-9.5-32.4-43.9-43.4-43.9-43.4 4.8-4 10.3-8.2 16-12.2 19.7-12.9 34.4-18.4 43-20.7 6.7 21.3 4.9 36.1 3.7 47.5zm-28.1-133.4zm-3.5 3.5c-.3.3-.6.5-.9.8.3-.3.6-.5.9-.8zm-77.5 84.8s-7.1-19.2 33.6-54.4c19.5 9.9 46 8.4 58.1.9.1 0 .1-.1.2-.1.1-.1.2-.1.2-.2 1.2-.7 2.2-1.5 3.1-2.4h.1-.1c.1.2.3.4.4.7.1.2.3.5.4.8.2.4.5.8.7 1.3.1.3.3.5.4.8.3.5.6 1.1.9 1.6.1.2.3.5.4.7.4.7.7 1.4 1.1 2.1.1.2.2.3.3.5 1 1.9 1.9 3.8 2.9 5.8.1.1.1.2.1.3.4.9.8 1.7 1.2 2.6.1.3.2.5.4.8l.9 2.1c.1.3.3.7.4 1 .3.6.5 1.3.7 1.9.1.4.3.7.4 1.1.2.6.4 1.2.6 1.7.1.4.2.7.3 1 .2.6.3 1.1.5 1.6.1.3.2.6.3 1 .1.6.2 1.1.3 1.6 0 .3.1.5.1.8.1.7.2 1.4.2 2.1 0 .7 0 1.4-.1 2v.3-.3c-10.8 5.8-33 14.2-51.8 26.4-14 9.2-22.4 14.8-27.5 18.3 4.7-16.4 10.9-29.7 26.1-44.3 0 0-22.4 4.2-36.9 25.6 0 0 5.7-26.2 24.8-43 .2.3-16.7-.3-43.7 37.3zm53.5 273.1c-7.9 6.2-17.7-2.1-21.1-5.4-3.4-3.3-36.2-58-36.2-58l-1.5-8.8s10.1-14.4 37.7 23.7c0 0 21.8 28.7 30 24.8 0 0-.9 17.4-8.9 23.7zm49.5 24.1c-8 1.8-21.1 5.3-23.6 5.1 0 0-4.9 1.4-10 1-7.5-.6-9.9-5.1-10.4-7.7-.5-2.6-.3-5 2.9-9.8 0 0 24.6-29.9 27.5-36.7 2.8-6.8 3.8-8.5 5.3-8.7 1.4-.2 4.3 6.3 2.7 15-1.1 5.8-3.5 17.6-8.2 28.9 5.4.3 11.1-1.7 11.1-1.7 3.1-1 21.1-24.3 23.6-32.3 2.5-8 3.6-4.6 3.6-4.6 3.5 20-8.6 37.6-15.1 45.4-2.3 2.8-5.9 5.4-9.4 6.1z" class="st3"/><path d="M2232.8 1471c.7-.1 1.4-.3 2.2-.5-.8.3-1.6.4-2.2.5z" class="st4"/><path d="M1402.5 2542.6c8.5-1.8 27.4-4.2 50.2-6.8-14-8.3-34.7-15-57.2-27.3-4.1-2.2-6.8-6.4-7.2-11-1.9-22.8-7.2-91.2-3.7-119.9 0 0-39.8-113.6-43.9-146.1 0 0 59.1 101.9 74.7 140.2 15.6 38.4 38.3 90.6 40.8 108.9 0 0 55.9 18.6 85.4 41.2 32.4.1 67.2-18.1 67.2-18.1s-55.8-68.3-57.1-76.8c0 0 24.8-159.5 27.2-179.6l24.3 175.1c3.7 8.7 89.1 139.8 97.8 149.9 82.6 24.9 159.7-68.2 159.7-68.2s-17.8 98.4-58 124.8c0 0-27 14.5-60.4 15.1 10.7 14.7 36.8 56.4 44.4 69.8 15.2 6.4 38.7 2.5 50.3 1.8 16.5-1 47.7-42.3 59.3-57.6 0 0 8.9 56-16.9 83.4-22 23.3-64.4 21.7-64.4 21.7 16.7 31.8 25.2 47.7 41.7 74 11.7 18.8 25.4 27.4 33.4 30.9 18 7.7 36.7.5 36.8.6 32.1 29 56.5 21.4 95.1 24.9 31.8 2.9 59.1 6.9 67.1 4.8 4.4-1.2 8.6-2.3 12.4-3.4 1.9-.6 3.8-1.1 5.6-1.7 3.6-1.2 6.9-2.3 9.9-3.6 3.8-1.5 7.1-3.1 10-4.9 4.5-11.9 6.2-33.2-23.8-53.9 0 0 47.9-5.5 47.7 47l16.4-4.3s13.4-16.9 12-31.1c-.6-5.7-14.6-25.5-20-32-.4-.5-.8-1-1.3-1.5-.9-1-1.9-1.9-2.9-2.8-.5-.4-1.1-.9-1.6-1.3-1.1-.9-2.3-1.7-3.6-2.4-8.2-4.8-19.6-7.2-35.1-4v-.1c0-.1 0-.2-.1-.4 0-.2-.1-.4-.1-.6-.8-2.9-8.4-11.4-29.2-7.5 0 0-31.5 7.1-38.5 8.9-8.9 2.3-21.9 5.7-28.9-7.4-41.6-77.9-82.5-209.6-96.7-259.6-14.2-49.9-46.2-265.5-63.8-294.5-17.6-28.9-43.9-112.4-43.9-112.4s-19.8-83.1-8.5-200.1c11.3-116.9 50.8-158 50.8-158s-2.9 65.6-12.7 149.7c-12.8 109.6 8 184 26.5 222.7 12.8 26.7 24.1 67.1 29.9 88.2 11.2 29.2 19.5 61.7 25.9 101.1 2.6-11 5-24.8 6.3-41.8.8-9.8 1.4-18 2-25 .1-1.2.2-2.3.3-3.4.2-2.2.4-4.2.6-6.2.1-1 .2-1.9.3-2.8.2-1.8.4-3.5.5-5.2l.3-2.4c.2-1.5.3-3 .5-4.3.1-.7.2-1.4.3-2 1.2-8.5 2.5-14.2 4.6-21.3.5-1.6 1-3.3 1.6-5.2.4-1.2.7-2.5 1-3.8 4.2-18 1.1-42.4-1.3-59.5-.2-1.2-.3-2.4-.5-3.6-.2-1.1-.3-2.4-.4-3.7-.3-3.9-.3-8.4-.1-13.3.1-1.6.2-3.3.3-5 1.3-18.6 5-40.1 7.2-49.2l20.6 79.8c.1-.2 2.3-7.5 10.1-30.8 11.4-33.9 17.9-42.7 26.1-58.2 3.1-5.8 5.4-15.1 7.7-25.3l1.2-5.1c3.5-15.6 7.2-32.2 13.6-41.4 8.5-12.3 31.3-27.7 51.5-42.2 6.7-4.9 13.2-9.6 18.7-14.1 6.2-5.1 13.3-11.5 20.3-18.2 1.6-1.5 3.1-3 4.6-4.5.8-.7 1.5-1.5 2.3-2.2 3-3 6-5.9 8.7-8.7.7-.7 1.4-1.4 2-2.1 5.1-5.1 9.4-9.6 12.5-12.9-18.4-9.1-39.5-18.9-54.4-24-62.1 18.3-122.5 72.1-122.5 72.1-123.4-82.8-78.2-234.3-78.2-234.3-15.1 10.7-46.2 19.9-46.2 19.9-81.3-24.5-46-77.4-46-77.4s10.1-12.7 49.7-32 51.8-11.3 51.8-11.3-28.7 9.8-25.9 24.7c2.8 14.9 36 26.3 36 26.3-25.8 16.8-96.9 14.2-96.9 14.2-1.3 20.5 22.2 37.8 43.1 32.3 20.9-5.5 59.6-36.9 59.6-36.9-32.9 126 61.6 209.6 61.6 209.6 72.7-44.5 122.8-27.2 141-17.8 16.6 5.9 71.1 25.3 82.1 31.4.5.3.9.5 1.3.8l21.3 9.7-.3-.5h.1c6.1 3.1 11.8 6.1 16.1 8.3.2.1.4.2.5.3.9.5 1.7.9 2.4 1.3 2.6 1.4 4.2 2.2 4.2 2.2l38.9-18s22-27 25.6-34.6c1.3-2.8 1-6.1 0-9.2-4.5 2.6-8.4 4.7-11.3 6-19.6 8.5-47.5 4.1-47.5 4.1l2.1 14.5c-14.9.6-41.9-19.2-41.9-19.2-48.7-64.4-49.1-129.6-49.1-129.6 0-74.5 32.7-122.8 50.4-143.6-5.4-1.5-11.7-5-18.2-11-16.4-15.1-14.8-39.4-14.8-39.4 20.4-44.9 50.4-46 54.8-45.9-3.3-1.7-6.5-3.8-9.3-6.2 0 0 1.3-.2 3.4-.6h-.1c.4-.3.9-.5 1.5-.6 1-.3 2.2-.4 3.6-.5 10.8-2.7 29.9-8.9 44.2-21.5.6-.6 1.1-1.1 1.6-1.5.9-.8 1.8-1.7 2.6-2.6-.5-1.9-3.3-7.6-18.3-10.2 0 0-13.1 3.4-40.9 7.9-11 1.8-19.8 3.2-28.3 5.4-13 3.4-25.2 8.8-43.1 20.6 0 0-8.9-2.1-28.7-7-5.9-1.5-15.5 0-26.2 2.8-20.8 5.4-45.4 15.9-53.7 19.4-.3.1-.6.2-.8.4-.8.3-1.3.6-1.7.7-.2.1-.3.1-.4.1-1.3.3-9.7 6.2-23.2 13.4-1.4.7-2.8 1.4-4.2 2.2-2.9 1.5-6 3-9.3 4.5-1.1.5-2.2 1-3.4 1.5-9.9 17.1-42.5 77.4-30.9 110.5 0 0-26.1-29.6-13.7-88.2-1.6 1.1-3.3 2.2-4.9 3.3-.5.4-1 .7-1.6 1.1-1.4 1-2.8 2-4.3 3.1l-2.4 1.8c-1.2.9-2.4 1.8-3.7 2.8l-2.4 1.8c-1.8 1.4-3.6 2.8-5.5 4.3-.8.7-1.7 1.4-2.5 2-1.1.9-2.3 1.8-3.4 2.8-1 .8-2 1.6-2.9 2.4-1 .9-2.1 1.7-3.1 2.6-1 .8-2 1.7-2.9 2.5-1.7 1.5-3.5 3-5.2 4.5-9.3 8.2-18.6 16.8-27.6 25.4 0 0-1.3.3-3.7.9-10.7 2.8-43.1 12-73.6 28.3-37.3 19.8-101 56.1-123.5 74.8-1.5 1.3-3.3 2.8-5.2 4.5-22.1 37.7-34.5 102.3-42.3 153.3-9 59.4 6 91.2 29.4 142.1 23.4 50.9 36.7 67.5 55.9 98.2 19.2 30.7 8.6 41.3 8.6 41.3s-6.9-30.6-49-63.2-72.3-109.6-72.3-109.6c-5.6 80.8 43 274.9 43 274.9s-75.1-77.6-85.2-257.1c-5-87.7 7.6-155 22.5-197.6l-88.3 23.1-60.6 69.5s-9.1 2.3-22.1 5.5c-4.1 34.9-13.4 113.6-13.6 116.2-.2 3.4-4.9 75.1-.3 92.8 4.7 17.8 38.3 69.3 38.3 69.3s2.6-2.9 29.5 57.1 38 115.2 38 115.2l-59.9-79.3s-71.3-88.6-91.9-129c-20.6-40.4-15.3-75.4-15.3-75.4l7.6-150c-2.9.7-5.6 1.4-8 2.1-7.2 1.9-11.8 3.2-12.3 3.4-.1 0-.4.1-1 .3-5.7 1.5-34.3 8-72.9 16.7-4.7 14-11.4 33.7-12.2 36.1-1.3 3.7-23.5 81-25.9 101.8-2.4 20.7 8.1 48.2 18 111.5s38.9 127.3 51.4 162 25.3 58.2 25.3 58.2-17.9-8.7-33.4-33.7c-15.5-25-78.2-119.2-88.3-136.7-10.2-17.5-31.1-178.5-31.1-178.5l9.6-101.1c-15 3.4-30.1 6.8-45 10.2l130.5 596.6c11.3 5.2 39.2 15.4 74 17.7 17.4-4.8 63.4-16.8 71.2-18.5zm681.2-1025.2c13 2.9 27.9 3.8 38.3.3 0 0-10.8 7.3-16.2 9.8-6.8 21.2-33.1 19.5-39.4 3.4-5.6-1.3-19.3 8.8-23.1 13.4 7.3-18.3 27.3-29.8 40.4-26.9zm5.3 160.4c4.9-11.3-3.2-36.1 48.6-98.8 0 0 6.9 9.4-.6 19.1-7.5 9.8-32.9 62.3-20.7 117.2 0 0-63.9-4.5-81-88.9 0 0 36.3 59 53.7 51.4zm-98.1-61.5c.9 12.1 36.4 62 45.5 79.7 9.1 17.7 35.4 45.5 84 81.9 48.7 36.4 50.2 55 50.2 55s-11.6-5.9-43.1-27.8-78.4-21.9-78.4-21.9-1.7-36.4-27.9-76.5c-26.1-40.1-31.3-81.2-31.3-81.2s.1-21.3 1-9.2z" class="st4"/><path d="M2116.3 1715.3c-12.2-54.9 13.2-107.4 20.7-117.2 7.5-9.8.6-19.1.6-19.1-51.7 62.7-43.7 87.5-48.6 98.8-17.4 7.7-53.7-51.3-53.7-51.3 17.1 84.3 81 88.8 81 88.8zM2049.2 1783.2s46.9 0 78.4 21.9c31.5 21.9 43.1 27.8 43.1 27.8s-1.5-18.6-50.2-55-74.9-64.2-84-81.9c-9.1-17.7-44.6-67.7-45.5-79.7-.9-12.1-.9 9.2-.9 9.2s5.2 41.1 31.3 81.2c26 40.1 27.8 76.5 27.8 76.5zM2286.4 1444.1z" class="st3"/><path d="M2317.8 1823.6c6.5-7.8 18.6-25.4 15.1-45.4 0 0-1.1-3.4-3.6 4.6s-20.5 31.3-23.6 32.3c0 0-5.7 1.9-11.1 1.7 4.7-11.3 7.1-23.1 8.2-28.9 1.6-8.7-1.3-15.2-2.7-15-1.4.2-2.4 1.9-5.3 8.7-2.8 6.8-27.5 36.7-27.5 36.7-3.1 4.8-3.4 7.2-2.9 9.8.5 2.6 2.9 7.2 10.4 7.7 5.1.4 10-1 10-1 2.5.2 15.6-3.4 23.6-5.1 3.5-.8 7.1-3.4 9.4-6.1zM2237.8 1757c-27.6-38-37.7-23.7-37.7-23.7l1.5 8.8s32.8 54.7 36.2 58c3.4 3.3 13.2 11.6 21.1 5.4 8-6.3 8.9-23.7 8.9-23.7-8.2 3.8-30-24.8-30-24.8z" class="st4"/><path d="M2282 1448.4c.3-.3.6-.5.9-.8" style="fill:none;stroke:#3271e0;stroke-width:0;stroke-linecap:round;stroke-linejoin:round"/><path d="M2237.7 1469.9c-1 .2-1.9.5-2.7.6.8-.1 1.7-.3 2.7-.6z" class="st3"/><path d="M2267.7 1550.7c-5.6 4-11.1 8.2-16 12.2 0 0 34.5 11 43.9 43.4 0 0 4.3 4.1 2.9-12.9-1.1-13.7-4.1-26.8-8.7-36.7 2.9-4.7 7.5-5.3 7.5-5.3 10.1 8.8 10.7 29.4 11.9 32.8 1.2 3.3 3.6 8.5 5.2-6.7 1.2-11.4 3-26.2-3.9-47.5-8.4 2.4-23.1 7.9-42.8 20.7zM2249.3 1495.4c-19.1 16.7-24.8 43-24.8 43 14.5-21.4 36.9-25.6 36.9-25.6-15.2 14.5-21.4 27.8-26.1 44.3 5-3.5 13.4-9.1 27.5-18.3 18.8-12.3 41-20.6 51.8-26.4v.3-.3c.1-.6.1-1.3.1-2 0-.6-.1-1.3-.2-2.1 0-.2-.1-.5-.1-.8-.1-.5-.2-1-.3-1.6-.1-.3-.2-.6-.3-1-.1-.5-.3-1.1-.5-1.6-.1-.3-.2-.7-.3-1-.2-.6-.4-1.2-.6-1.7-.1-.4-.3-.7-.4-1.1-.2-.6-.5-1.3-.7-1.9-.1-.3-.3-.7-.4-1l-.9-2.1c-.1-.3-.2-.5-.4-.8-.4-.9-.8-1.7-1.2-2.6 0-.1-.1-.2-.1-.3-1-2-1.9-4-2.9-5.8-.1-.2-.2-.3-.3-.5-.4-.7-.8-1.4-1.1-2.1-.1-.3-.3-.5-.4-.7-.3-.6-.6-1.1-.9-1.6-.2-.3-.3-.5-.4-.8-.3-.5-.5-.9-.7-1.3-.1-.3-.3-.5-.4-.8-.1-.2-.3-.5-.4-.7-.9.9-1.9 1.6-3.1 2.4-.1.1-.2.1-.2.2-.1 0-.1.1-.2.1-12.1 7.4-38.6 9-58.1-.9-40.7 35.2-33.6 54.4-33.6 54.4 26.8-37.9 43.7-37.3 43.7-37.3zM2300.7 1476.2s0 .1 0 0c0 .1 0 0 0 0zM2300.6 1476.3s.1 0 0 0c.1 0 0 0 0 0zM2297.5 1478.7zM1989.1 2231c-3.2 14.1-7 27.9-11 41-15.6 51.5-34.6 92.2-34.6 92.2s3.4.7 9.5 2.1c10.1 2.2 27.5 5.9 48.4 10.4 10.2-6.2 27-17.3 35.4-28.1 12.6-16.1 31.3-64.5 37.5-107.5 2.3 5 25.2 46.4 28 101.4.5 9.7-2.6 19.2-8.6 26.8-5.5 7-13.1 15.6-21.3 22.4 17.5 3.7 34.9 7.2 50.7 10.4 7.4-7.5 30.5-31.4 33.4-43.3 3.5-14.3-3.8-61.1-3.8-61.1s36 56.2 30.1 80.1c-1.9 7.8-12.7 26.5-16.4 32.8 10 1.9 17.6 3.1 21.7 3.6 29.6 3.3 76.7 4.4 97 34 20.3 29.6 44.7 23.1 80.2 15.6 35.5-7.5 32.8 14.6 65.9 10.7 13-1.5 32.8-4.5 52.2-9.4 4.6-6.8 9-20.7-3.8-43.8 0 0 28.6 13.6 26.1 37.1 20.7-7.4 36.9-17.6 37.2-31.1 1-35.3-22.6-50.8-63.1-50.3-48.1.6-76.5-14.4-76.5-14.4-37.2-44.3-106.9-94-106.9-94s-43-26-95.1-32.2c-52.1-6.2-86.4-40.5-108-59.3-21.6-18.8-70.8-75.3-70.8-75.3s-9 15.7-17.7 48.9c-3.5 13.2-6.9 29.2-9.7 48-1.5 10.7-3.6 21.6-6 32.3z" class="st4"/><path d="M2093.8 2369.3c6-7.6 9.1-17.1 8.6-26.8-2.8-55-25.6-96.4-28-101.4-6.2 43-24.9 91.4-37.5 107.5-8.5 10.8-25.3 22-35.4 28.1-5 3-8.4 4.9-8.4 4.9l72.6 15.2c2.3-1.5 4.6-3.2 6.9-5.1 8.1-6.7 15.7-15.4 21.2-22.4zM2152.8 2297.7s7.4 46.8 3.8 61.1c-3 12-26 35.9-33.4 43.3-1.4 1.5-2.3 2.3-2.3 2.3l44.4 8.3s.5-.8 1.2-2.1c3.7-6.3 14.5-25 16.4-32.8 5.8-23.9-30.1-80.1-30.1-80.1zM2479.6 2421.4c12.9 23.1 8.4 37 3.8 43.8-2.4 3.6-4.9 5.3-4.9 5.3l26.3-7.3c.4-1.6.7-3.2.9-4.7 2.5-23.5-26.1-37.1-26.1-37.1zM2066.3 1530.8c6.3 16.1 32.6 17.8 39.4-3.4 5.4-2.5 16.2-9.8 16.2-9.8-10.3 3.5-25.2 2.6-38.3-.3-13.1-2.9-33.1 8.6-40.5 26.9 3.9-4.6 17.6-14.7 23.2-13.4z" class="st3"/></svg>