<svg xmlns="http://www.w3.org/2000/svg" id="Layer_1" data-name="Layer 1" viewBox="0 0 3035.64 1926.39"><defs><clipPath id="clip-path" transform="translate(-2.09 -1406.61)"><path d="M0 0h4000v4000H0z" class="cls-1"/></clipPath><clipPath id="clip-path-2" transform="translate(-2.09 -1406.61)"><path d="m942.84 1104.63 399.19 1824.62h1267.31l561.38-1351.22-60.05-786.8-2167.83 313.4z" class="cls-1"/></clipPath><style>.cls-1{fill:none}.cls-3{fill:#3271e0}.cls-4{fill:#fff}</style></defs><g style="clip-path:url(#clip-path)"><path d="M1315.53 1502.51 991.84 23.01l-10.66 2.29a50.12 50.12 0 0 0-38.47 59.47l304.51 1425.45a58.33 58.33 0 0 0 2 9.19v.13a58.67 58.67 0 0 0 56.13 41.62h1578.64a39.3 39.3 0 0 0 39.3-39.3v-19.36Z" class="cls-3"/><path d="M1486.6 1541.89h-77a9.625 9.625 0 1 1 0-19.25h77a9.625 9.625 0 0 1 0 19.25M1603.15 1541.89h-77a9.625 9.625 0 0 1 0-19.25h77a9.625 9.625 0 0 1 0 19.25" class="cls-4"/><path d="M2388.3 1506.54a6.78 6.78 0 0 1-6.65-8.1l69.38-348h-131.12a6.78 6.78 0 0 1-6.65-8.1l11.75-58.73h204.9a6.78 6.78 0 0 1 6.64 8.1l-11.26 54.54-70.74 354.85a6.79 6.79 0 0 1-6.64 5.45ZM2736.36 1506.54a6.85 6.85 0 0 1-6.52-5.25l-.41-1.4 80.08-410.82a6.8 6.8 0 0 1 6.65-5.48h132.75l-12.28 61.38a6.79 6.79 0 0 1-6.65 5.45h-57.47l-69.9 350.66a6.79 6.79 0 0 1-6.64 5.45ZM2495.19 1506.54a6.78 6.78 0 0 1-6.65-8.1l81.65-409.39a6.79 6.79 0 0 1 6.64-5.45h54.08a6.74 6.74 0 0 1 6.7 5.76l29.57 194.34 109-196.6a7.15 7.15 0 0 1 6.19-3.49h7.37l-35 168.35-90 159.32a6.75 6.75 0 0 1-5.93 3.51h-32.9a6.77 6.77 0 0 1-6.73-6l-14.1-125.6-43.69 217.94a6.79 6.79 0 0 1-6.64 5.44ZM2957.5 1082.83h11.12l-2.11 52.06 18.79-52.06h11.13l-27.81 68.27h-10.55l-.57-68.27zM3002.18 1082.83h8.53l6.91 41.33 7.86-41.33h10.16l-13.61 68.27h-8.15l-6.91-41.33-8.24 41.33h-10.17l13.62-68.27z" class="cls-3"/></g><g style="clip-path:url(#clip-path-2)"><path d="M2424.36 1093.48c-17.48.79-32-5.07-38.79-7.7-4-1.54-4.32-1.67-7-1.54a59 59 0 0 0-9.2 1.35c-13.57 2.88-20.28 6.33-30.17 6.77-34.51 1.56-61.2-11.08-79.32-37.57-10.86-15.87-41.45-18.84-66-21.23-3.81-.37-7.46-.73-10.88-1.11-30-3.36-218.2-41.85-239.55-46.22l-25.22-5.17 62.68-368.75 38.85 43.69c19.48 21.91 73.7 81.94 90.37 96.46 2 1.72 4.06 3.57 6.25 5.52 20.19 17.93 47.84 42.5 86.25 47.07 56.41 6.71 102 33.73 104.44 34.9l1.41.68 1.32.83c2.73 1.71 68.34 49.14 108.19 93.77 10.73 3.72 30 4.4 68 11.49 35.15 6.55 82.91 22.52 82.1 71.9-.26 15.83-7.1 30.08-28.27 45.14-9.57 6.81-27 12-43.42 17.21-29.11 9.17-50.83 10.34-63.65 11.83-2.91.34-5.75.57-8.43.69" class="cls-3"/><path d="M2176.36 1383.6a64 64 0 0 0-5.12-5c-.93-.8-1.88-1.57-2.86-2.33a63.59 63.59 0 0 0-6.32-4.27c-8.15-4.81-20.72-9.67-37.93-9.25-8.66-5.75-22-9.43-42.39-5.59-2 .37-35.18 7.22-38.42 8.61-1.79.77-3.61 1.55-5.23 2.12-35.21-45.17-75.11-189.66-86.17-229-2.24-8-10.84-59-12.12-65.24-19-92.63 4.38-87.94 4.38-87.94-.22-.89 62.6-235.07 62.53-235.23a27.31 27.31 0 0 0-7.88-10.42c.21-.65.41-1.27.62-2l.07-.24.25-.83c.43-1.42.88-2.93 1.34-4.56l.14-.51.05-.18c.4-1.4.82-2.91 1.24-4.5l.38-1.43c.49-1.84 1-3.75 1.51-5.81 5.56-22 10.66-30.24 16.56-39.81 2.32-3.76 4.71-7.64 7.18-12.33 4.77-9 7.67-20.75 10.24-32q.59-2.59 1.18-5.23v-.17c2.26-10 6-26.86 9.34-31.63 4.71-6.8 23.45-20.2 37.12-30l7.83-5.61c6.26-4.52 13.53-9.85 20-15.16 6.15-5 13.5-11.63 21.86-19.61 1.61-1.54 3.22-3.09 4.81-4.64l2.36-2.31c3.11-3 6.13-6.06 9-8.93l2.1-2.12c4.58-4.65 8.6-8.8 11.65-12a151.06 151.06 0 0 1 15.9-2.07l31.36 14.34a27.66 27.66 0 0 0 2.7 1.07c4.49 2.3 8.62 4.44 11.87 6.13l.39.21.14.07 2.36 1.23 4.14 2.17a27.57 27.57 0 0 0 24.46.63l38.87-18a27.6 27.6 0 0 0 9.79-7.61c11-13.52 25-31.49 29.15-40.35 2.79-5.94 5.13-15.14 2-26.95a114.16 114.16 0 0 0 12.33-24.1c.8-2.23 1.51-4.49 2.11-6.71a72.43 72.43 0 0 0 2.61-19.17 62 62 0 0 0-1.4-12.95 27.59 27.59 0 0 0-33.93-20.81 28.2 28.2 0 0 0-2.86.92 28.4 28.4 0 0 0-13.3-6.8 28.86 28.86 0 0 0-13.18.33c-11.42 3-17.85 11.53-22.61 20.36a154.24 154.24 0 0 1-16.79-20.34l-.36-.84-.05-.11-.66-1.59-.07-.17-.74-1.84-.08-.2c-.26-.66-.54-1.38-.82-2.12l-.06-.17c-.29-.76-.57-1.52-.86-2.3l-.1-.26c-.29-.78-.56-1.56-.84-2.36l-.1-.29c-.31-.88-.58-1.68-.85-2.49l-.16-.47c-.25-.77-.51-1.57-.76-2.36l-.17-.52c-.23-.76-.45-1.51-.67-2.27l-.18-.6v-.17c-.17-.59-.35-1.3-.54-2l-.18-.68v-.17c-.13-.51-.26-1.08-.39-1.65l-.05-.22-.17-.72v-.17c-.11-.51-.23-1.13-.35-1.75l-.16-.77v.07c-.14-.75-.27-1.51-.37-2.25 0-.19 0-.38-.07-.59-.05-.58-.12-1.55-.17-3.05s-.06-3 0-4.71c.21-27.79 7.24-77.5 19.94-101.25l1-1.12a48.58 48.58 0 0 1 4.72 10.33 27.58 27.58 0 0 0 42.11 13.89 32.87 32.87 0 0 0 11.93-16.5c6.31-3 13.9-9.35 16.84-23a97.94 97.94 0 0 0 1.73-13.35c1.21-16.52-1.62-33.9-4.35-46l.27-.56c.34-.71.75-1.59 1.17-2.64l.18-.45a43.24 43.24 0 0 0 2.57-10.68v-.62c.16-1.61.24-3.16.24-4.72a42 42 0 0 0-.45-6c-.09-.6-.2-1.25-.33-1.89-.17-1-.37-2-.63-3-.11-.47-.25-1-.39-1.51v-.17c-.23-.87-.48-1.75-.76-2.66-.16-.51-.33-1-.51-1.56-.27-.8-.55-1.62-.86-2.45-.19-.52-.37-1-.56-1.48-.3-.78-.62-1.6-1-2.44l-.08-.2-.43-1c-.39-.93-.76-1.79-1.15-2.66l-.06-.13-.37-.83c-.47-1-.94-2.06-1.43-3.09l-.15-.33c-1-2.15-2.13-4.38-3.32-6.66l-.21-.4c-.5-1-.92-1.76-1.34-2.54l-.32-.6-.1-.19-1-1.82-.4-.72c-7-21.93-14.79-34-17.32-37.54-5-8.35-15.37-17.75-36.58-21.35a27.6 27.6 0 0 0-11.6.51c-.08 0-12.53 3.21-38.36 7.39l-1.48.24c-10.75 1.74-20 3.24-29.42 5.7-13.94 3.65-26.38 9-41 17.72-4.38-1.07-10.09-2.48-17.19-4.24-10.25-2.54-22.52-1.66-39.8 2.87-21.83 5.72-46.88 16.25-56.31 20.21l-1 .44-.36.15-.42.18-.65.27c-3.34 1.17-6 2.83-9.76 5.13s-9.57 5.9-17.11 9.88q-1.82 1-3.78 2c-2.76 1.39-5.56 2.74-8.33 4-4.71 2.15-9.49 4.12-14.21 5.88-2 .75-4.13 1.61-6.63 2.7l-1.65.74-.3.14c-1.59.72-3.21 1.49-4.85 2.3l-.35.17-1.54.77a189.9 189.9 0 0 0-6.4 3.41l-.82.47c-1.8 1-3.7 2.13-5.61 3.29l-1.8 1.1-.32.2c-1.52.94-3 1.89-4.52 2.87l-.53.34-1.57 1c-2 1.35-4.08 2.73-6.14 4.16l-1.19.84-.51.37c-1.55 1.09-3.1 2.2-4.65 3.34l-2.57 1.9q-2 1.46-3.94 3l-.62.47-1.91 1.46q-2.89 2.24-5.8 4.57l-1.86 1.51-.8.65c-1.2 1-2.4 1.95-3.6 2.94l-3.08 2.57-3.23 2.73-.61.52-2.45 2.09q-2.71 2.34-5.41 4.71c-7.39 6.5-15.19 13.63-23.25 21.25-14.8 4-46.15 13.66-76.4 29.75-3.91 2.08-96 51.19-128.17 78-1.65 1.37-3.55 3-5.65 4.83l-.3.26-.14.12-3.78 3.32-.28.25-.43.38-2 1.73-.37.33-.55.49-2 1.8-.77.69-.14.13-2.19 2-.31.28c-2.56 2.32-5.31 4.8-8.13 7.38l-.81.74-2.5 2.29-.82.75-.44.4-2.16 2-.16.15-.39.36-8.6 7.92-.42.39-.46.42-1.44 1.33-1.14 1-.54.51-.37.34-1.71 1.58-.72.66-.86.8-.66.62-.55.51-1.38 1.28-2.14 2-1.13 1.05-2.42 2.26-.85.79-2.25 2.1-1.52 1.42-.64.6-.89.83-1 .95-1.3 1.21-.62.58-.45.42-3.16 3-.5.47-.46.43-1.47 1.37-.52.49-1.7 1.6-.73.68-.4.38-1.75 1.64-.42.4-1 .91-.78.73-.18.17-3.93 3.69-1.85 1.75-.59.55-.26.24-.17.17-.22.21-.79.74-1.19 1.12-.11.1-81.74 21.27a27.57 27.57 0 0 0-13.8 8.56l-54.85 62.95-13.7 3.39-.35.09-.41.1c-9.69 2.41-21.43 5.33-33.14 8.26l-.63.16-3.71.93-.43.11-.82.21c-8.7 2.19-17.18 4.33-24.58 6.23h-.07l-3.67.94h-.16l-8 2.08c-7 1.82-11.06 2.9-14 3.94-7.82 2-41.87 9.63-72.06 16.43l-2.79.63-3.66.83-2.19.5c-51.56 11.62-115.72 26.08-169.35 38.52h-.15l-5.56 1.29-.3.07-.62.14-5.51 1.28-.23.05c-12 2.79-23.17 5.44-33.34 7.87h-.15l-4.95 1.19h-.18c-14 3.37-25.26 6.17-33.5 8.33-7.63 2-12.79 3.47-16.23 4.64-27.87 9.42-70.05 24.17-112.69 40.93l-.45.18c-29.21 11.49-54.39 22.28-74.78 32-37.67 18-76.27 38.6-114.72 61.1l-.17.1q-4.47 2.62-8.74 5.15h-.07c-10.3 6.12-20.36 12.25-29.9 18.22a14.61 14.61 0 0 1-3.78 1.39c-5.89 1.54-24.11 4.27-66-3.7l-3.15-.62-.36-.07-.85-.17-.8-.16-3.1-.65-.88-.18-1.08-.23-2.93-.64-.8-.18-1.16-.26-2.91-.66-.48-.11-1.29-.3-2.76-.65-.51-.12-1.17-.28-2.6-.64-1.63-.4-2.38-.6-1.56-.4-2.18-.57-1.4-.37-2-.53-1-.27-.28-.07-1.71-.47-1.2-.33-1.43-.4-1-.29-.39-.11-.74-.21-.62-.18-.24-.07-.3-.09-.59-.17h-.17l-.5-.15-.26-.07-.25-.07-.37-.11-.23-.07h-.12c-2.42-.84-14.12-5-32.07-12.76-21.54-9.31-43.54-20.09-65.38-32a826.036 826.036 0 0 1-50.8-30.18c-21-13.55-41.37-28-60.4-43.1-15.84-12.52-31.08-25.67-45.32-39.07a615 615 0 0 1-51.58-54.53 556.75 556.75 0 0 1-18.47-23.53l-.21-.28-.13-.17c-6-8.15-11.91-16.55-17.41-24.92-7.52-11.45-14.51-23-20.76-34.43l-.26-.46s-2.72-4.77-6.43-12.09l-.07-.19s-7.53-14.77-11.18-23.69c-1.55-3.79-5-13.65-6.59-19.25-1.11-3.73-1.88-6.91-2.43-9.59.66.84 1.31 1.69 2 2.55l.32.42c.74 1 1.49 2 2.24 3.05l.36.5.1.14c.67.94 1.33 1.9 2 2.86l.46.67.16.23c.6.89 1.2 1.81 1.8 2.74l.46.71.16.25c.74 1.16 1.45 2.3 2.13 3.44l.23.37c1.64 2.75 3.56 6.32 5.59 10.08 6.6 12.24 14.82 27.48 26.21 39.71 21.78 23.4 44.41 24.24 59.56 20.82.69-.16 1.38-.33 2.08-.51a67.39 67.39 0 0 0 9.2-3.15 50.06 50.06 0 0 0 28.6-31.18c5.49-17.15 3.09-38-7.33-63.62a224.76 224.76 0 0 0-14.78-29.7c-.21-.34-.44-.7-.66-1l-.29-.43-.24-.34-.38-.54-.19-.28-1-1.45-.16-.22-1.39-1.9a315.43 315.43 0 0 0-38.89-43.55c-33.51-30.93-67-46.48-99.41-46.21a115 115 0 0 0-27.64 3.45l-.41.11c-20.29 5.32-36.78 16.37-49 32.84l-.14.19a87.814 87.814 0 0 0-3.23 4.66l-.15.23a106.1 106.1 0 0 0-9.78 19.37l-.06.16c-.58 1.52-1.09 2.94-1.57 4.35l-.14.4q-.72 2.13-1.34 4.22l-.05.17c-1.13 3.79-2.13 7.78-3 11.86v.24q-.34 1.66-.64 3.21v.15c-.53 2.86-.94 5.41-1.28 7.52l-.26 1.61c-3.51 21.48.85 94.08 36.66 169.84 35.68 75.48 152.1 208.61 216.3 256.73 61.26 45.91 167.61 108.31 183.35 116 .83.4 1.86.87 3 1.36l.78.34 2.33 1 1.08.46 2.07.87.31.13.33.14 2.48 1 .7.3q1.63.71 3.38 1.5l.47.22c1 .47 2 .94 3.07 1.43l.75.36c1.19.58 2.38 1.17 3.59 1.79l.14.07c1.13.59 2.27 1.21 3.41 1.85l.77.43c1.11.63 2.21 1.28 3.31 2l.26.16c1 .66 2.08 1.34 3.16 2.08l.31.21.31.22c.91.64 1.77 1.27 2.61 1.93l.53.4c.8.64 1.66 1.35 2.46 2.07l.54.5c.59.54 1.23 1.17 1.85 1.82l.33.35.14.15c.57.61 1.08 1.19 1.51 1.73l.37.49c.33.43.73 1 1.15 1.67l.23.38a17.86 17.86 0 0 1 .92 1.68c.8 1.77 2.67 5.91-1.83 15.15-2.48 5.09-7.32 12.39-12.44 20.12-13 19.67-29.24 44.14-32.48 70-1.68 13.43-2.31 31.75-3 51.15-.79 23.05-1.69 49.18-4.42 61-6.68 29-18.67 67.29-28.67 84.4-14.77 25.25-59.61 134.55-78.66 191.72-6.42 19.27-11.29 35.19-15.2 48-4.52 14.78-9.18 30-11.75 34.46-2.8 2.66-8.38 6.94-13.78 11.09-9.7 7.45-20.7 15.89-30.38 25.62-13.58 13.65-18 36.54-24.12 68.23-4.72 24.44-10.07 52.14-20 77.34-17.21 43.54-37.12 108-46.17 139.16l-.09.29-1.09 3.76-.13.46-1 3.58-.09.31-.07.24c-1 3.56-1.91 6.82-2.69 9.7l-.07.26-.43 1.6-.09.35-.1.39-.28 1-.39 1.51-.36 1.4-.32 1.3-.33 1.36-.28 1.16q-.16.66-.29 1.29v.17l-.19.89c-.14.65-.26 1.27-.36 1.83 0 .2-.08.41-.11.6-2.44 14.27-1.93 26.62 1.57 37.77.55 1.76 1.18 3.49 1.88 5.15a56.64 56.64 0 0 0 13.15 19.4c3.92 15.41 13.46 41.78 34.92 56.79 14.58 10.2 32 13.53 50.39 9.61 10.79-2.3 24.09-5.52 39.53-9.56 35.85-9.39 74.31-20.92 83.7-23.8l.72-.18.53-.14c15.49-4.35 26.31-17.36 28.31-34 .13-1.09.23-2.26.29-3.44a54.71 54.71 0 0 0-.53-10.35c-.16-1.1-.35-2.25-.59-3.44-.45-2.25-1-4.58-1.74-6.93a105.32 105.32 0 0 0-5.65-14.45c-1.16-2.44-2.38-4.83-3.64-7.11-.38-.68-.75-1.31-1.13-1.92l-.07-.11-.07-.12c-.76-1.31-1.62-2.79-2.64-4.36-.44-.68-.88-1.3-1.32-1.92l-.11-.16-.12-.18c-.7-1-1.58-2.32-2.61-3.67-.49-.64-1-1.21-1.43-1.77l-.15-.19c-.76-.95-1.7-2.12-2.82-3.38-.5-.56-1-1.08-1.49-1.58l.07.07-.11-.12c-.83-.88-1.86-2-3.09-3.13-.51-.48-1-.92-1.5-1.35-.85-.77-2-1.77-3.29-2.82-.48-.38-.95-.73-1.42-1.08-1-.79-2.17-1.62-3.43-2.47-.44-.3-.87-.57-1.31-.83-1-.65-2.21-1.39-3.55-2.14l-1.09-.58c-1.36-.73-2.49-1.3-3.62-1.83l-.8-.36q-1.23-.56-2.39-1c0-14 2.48-37 15.28-64.94 21.8-47.61 43.94-94.6 58.15-115.92 4.92-7.38 11.57-13.71 22.59-24.2a789 789 0 0 0 62-65.15l2.78-3.26.37-.43.17-.2 1.21-1.42 1.14-1.33.57-.67.31-.36 2.28-2.68 1-1.15 2.46-2.9.55-.64.16-.19 1.75-2.07.69-.81 11.23-13.25c7.26-8.58 15.24-18 23.73-28l2.9-3.41 1.43-1.68 2.19-2.58 3.61-4.25.88-1 2.73-3.21 4.76-5.59.49-.58.28-.33 6.21-7.29.46-.54 6.64-7.76.62-.72.18-.21 6.24-7.28.21-.24.48-.56 1.45-1.68 1.17-1.36 8.39-9.75.74-.86.84-1 9.56-11.06.15-.17.18-.21 9.23-10.63 1.69-1.95.36-.42 8.39-9.62.87-1 1.06-1.21.13-.15.5-.57 6.09-6.94.22-.25 1.17-1.33 6.45-7.32.64-.73.47-.53 5.63-6.36.56-.64.75-.85 6.26-7 1.29-1.44 5.43-6.06.48-.53.68-.76 6-6.66 1-1.11.39-.43 5.46-6 .41-.45.29-.32 5.76-6.26 1.38-1.49c1.92-2.08 3.82-4.13 5.69-6.13l.2-.21q2.68-2.87 5.3-5.64l1.32-1.39c1.76-1.85 3.49-3.68 5.2-5.46l.31-.32.37-.38q2.26-2.35 4.45-4.6l.17-.18 1-1q2.39-2.45 4.68-4.75l.36-.36.47-.47q2-2 3.92-3.9l.27-.27.66-.65c1.36-1.34 2.74-2.67 4.08-4l.46-.43.39-.37q1.72-1.64 3.35-3.15l.36-.34.23-.22c1.22-1.12 2.35-2.15 3.46-3.13l.45-.4.27-.24c.81-.71 1.59-1.38 2.35-2 14.59 12.83 22.44 21.17 25.3 26.89 1.94 3.89 2.22 8.31 2.6 21 .14 4.83.3 10.3.68 16.68 2.37 40.28 1.88 87.82-.13 101.85-1.53 10.73-16.24 42.4-21.53 49.23-1.09 1.37-2.73 3.24-4.47 5.22-10 11.43-25.19 28.69-23.63 50.69 1.31 18.39 17.91 41.89 28.37 55 19.72 30.33 46.8 48.37 78.09 69.22 11.09 7.39 22.56 15 34.7 23.86 48.77 35.47 130.59 68.84 134.05 70.25a27.58 27.58 0 0 0 17.36 1.12h.18c1.18-.32 118.31-31.84 133-35.67 25-6.54 36-27.65 34-45.12a27.48 27.48 0 0 0-1.43-6.13c-.06-.16-6-16.72-9.49-30.24-5.57-21.27-23-32.56-38.91-35.14l-15.17-6.19-.84-.33c-45.28-16.76-55.86-14-61.54-12.5-11.73 3.08-21.23 11.51-30.42 19.67-1.23 1.09-2.43 2.16-3.59 3.17-24.38-13.47-51.94-32.17-57.64-41.09-5.85-9.17-7-27.46-6.75-38.09 4-7.69 16-30.31 51.8-94.42 49.41-88.59 69.4-158.06 73.93-175.34a387.57 387.57 0 0 0 61.45 4.06q3.69-.06 7.49-.2c5.21-.19 10.46-.5 15.63-.91q4-.32 8.13-.74a369 369 0 0 0 52.71-9.35l2.46-.64c4-1.05 8.25-2.24 12.9-3.63l1.13-.33 1.89-.56h.06l.48-.14 7.92-2.44 1.9-.58 5.93-1.83 1.82-.56 7.06-2.16.22-.07 1.64-.5 4.73-1.44 1.06-.33 1.73-.53 4.28-1.3 3.45-1 .34-.1 3.83-1.16 3.3-1 .46-.14 1.88-.56 3.55-1.07.18-.05 8.29-2.47.29-.09.62-.19 3.87-1.15.23-.07.29-.08 11.66-3.42c16-4.67 29.28-8.38 40.5-11.33l1.12-.29c10.25-2.69 18.94-4.78 27.34-6.57 7.69-1.64 215.78-37.6 219.15-40.84 6.82 7.36 122.2 172.52 122.2 172.52l.62 1.1.36.65.4.73 3.48 6.31 1.33 2.41.34.63 2.39 4.36 1.79 3.29 2.1 3.87.32.59 1.41 2.6 2.14 4 3.08 5.75.26.49.87 1.63 2.08 3.92.86 1.64 2.14 4.07c20.53 44.94 42.8 91.53 66.14 115 26.2 26.36 52.08 31.16 68.21 29.84a128.91 128.91 0 0 0 36.77 14.42c18 4.07 39-.17 60 2.1 40.51 4.39 30.49 4 75.52 5.83 5.16.21 19.35-2.09 23.28-3.26q3.23-1 6.23-1.92c4.37-1.41 8.23-2.79 11.78-4.22a104 104 0 0 0 12.17-5.76l34.88-9.14a27.58 27.58 0 0 0 14.61-9.53c4.79-6 20.25-27.57 17.81-51.08-1.27-12.23-18.14-37-26.25-46.79-.74-.89-1.49-1.75-2.27-2.6" class="cls-3"/><path d="M998.31 1387.88c-54.75 98.17-54.92 100.73-54.92 100.73s-3.51 37.8 10.71 60.06 73.57 53.65 73.57 53.65a18.53 18.53 0 0 0 13 1.55 18.33 18.33 0 0 0 6.65-3.35c9.75-7.58 20.82-19.71 28.67-21.76s45 11.69 45 11.69l18.77 7.66s15.15.22 19.05 15.13 10.2 32.53 10.2 32.53 1.31 11.39-13.6 15.3-133.14 35.72-133.14 35.72-81.6-33.1-128.2-67-83.77-51-106.59-86.91c0 0-22.34-27.68-23.27-40.84s14.64-27.31 22.2-36.83 24.85-45.91 27.22-62.45 2.79-66.11.36-107.39c-2.31-39.21 3.88-45.88-32.79-79.08 17.22-10.92 25.25-14.25 27.27-15l.55-.1 2-.37.43-.08 3.54-.65.39-.07.32-.06 1-.18.4-.07h.14l.35-.06 1.82-.33 1-.18 1.27-.23.7-.13.6-.11.54-.1 5.83-1.06 1.27-.23 1.7-.31 1-.18 3.83-.69h.2l.6-.11 1.86-.33 1.36-.24.55-.1 3.44-.61.78-.14.89-.16 1.5-.27h.17l.71-.12 7.51-1.32.81-.14 2.48-.43.46-.08.6-.1 3.94-.68 1.31-.22 1.06-.18.86-.15.82-.14 1-.17 3.09-.52.7-.12.67-.11 2.13-.36.51-.09.67-.11 2-.34c9.37-1.55 16.76-2.7 22-3.42l2.21-.29c1.29-.16 2.54-.31 3.76-.43a91.4 91.4 0 0 1 18.47-.08c.93.09 1.85.2 2.76.32 1.79.24 3.61.53 5.54.9 1 .18 1.93.38 2.89.58 1.89.41 3.89.88 6.11 1.45l3.29.86c2.31.62 4.67 1.28 7.11 2 5.11 1.44 13.93 4.22 24.16 7.43 42.48 13.35 73.76 22.85 89.39 23.58.33 0 .85.07 1.45.15-5.35 19.55-25.07 84.55-70.61 166.22" class="cls-4"/><path d="M2164.32 311.22s.34 65.29 49.06 129.64c0 0 27 19.76 41.91 19.19l-2.13-14.53s28 4.4 47.55-4.08a114.79 114.79 0 0 0 11.26-6c.94 3 1.28 6.35 0 9.18-3.58 7.65-25.57 34.64-25.57 34.64l-38.87 18-4.21-2.21-2.41-1.26-.55-.28c-4.25-2.21-10-5.18-16.07-8.28h-.08l.3.49-21.3-9.74a9.48 9.48 0 0 0-1.26-.84c-11-6.08-65.52-25.54-82.1-31.41-18.16-9.44-68.34-26.73-141 17.78 0 0-94.56-83.63-61.63-209.61 0 0-38.72 31.38-59.64 36.86s-44.45-11.82-43.11-32.29c0 0 71.09 2.61 96.86-14.2 0 0-33.17-11.43-36-26.34s25.94-24.68 25.94-24.68-12.15-8-51.79 11.34-49.72 32-49.72 32-35.33 52.84 46 77.36c0 0 31.1-9.27 46.19-19.93 0 0-45.23 151.55 78.16 234.34 0 0 60.37-53.84 122.48-72.13 14.82 5.09 35.94 14.93 54.36 24-3.08 3.23-7.44 7.75-12.49 12.87l-2 2.06c-2.77 2.79-5.7 5.71-8.72 8.67l-2.28 2.23q-2.3 2.23-4.63 4.46c-7 6.67-14.07 13.13-20.28 18.21-5.52 4.52-12 9.28-18.68 14.14-20.18 14.56-43 30-51.48 42.25-6.39 9.22-10.12 25.87-13.62 41.45q-.58 2.6-1.16 5.14c-2.32 10.16-4.66 19.41-7.74 25.25-8.22 15.56-14.68 24.3-26.09 58.25-7.83 23.31-10 30.63-10.1 30.84l-20.61-79.8c-2.24 9-6 30.61-7.22 49.17-.12 1.69-.21 3.35-.28 5a117.75 117.75 0 0 0 .06 13.32c.09 1.3.22 2.53.38 3.67s.33 2.33.5 3.56c2.39 17.14 5.5 41.53 1.28 59.54q-.45 1.93-1 3.76c-.57 1.83-1.09 3.53-1.57 5.17a134.25 134.25 0 0 0-4.62 21.32c-.09.65-.18 1.32-.27 2-.18 1.37-.35 2.82-.53 4.35-.09.77-.18 1.55-.26 2.37-.18 1.62-.35 3.34-.53 5.16q-.13 1.37-.27 2.82c-.18 1.94-.37 4-.56 6.17l-.29 3.38c-.59 7-1.25 15.16-2 25a272.33 272.33 0 0 1-6.34 41.78c-6.32-39.41-14.65-71.92-25.86-101.07-5.85-21-17.14-61.48-29.91-88.17-18.53-38.73-39.27-113.14-26.51-222.72 9.8-84.15 12.73-149.75 12.73-149.75s-39.53 41.09-50.8 158 8.52 200.09 8.52 200.09 26.31 83.54 43.94 112.44 49.63 244.53 63.83 294.45 55.06 181.67 96.66 259.55c7 13 20 9.7 28.89 7.36 7-1.83 38.51-8.95 38.51-8.95 20.85-3.93 28.41 4.6 29.23 7.51.06.22.11.41.14.57 0 .16 0 .29.05.37v.13c15.52-3.16 26.94-.82 35.14 4a35.88 35.88 0 0 1 3.56 2.4q.83.64 1.61 1.31a35.88 35.88 0 0 1 2.9 2.81q.67.73 1.3 1.48c5.4 6.51 19.45 26.29 20 32 1.47 14.14-12 31.08-12 31.08l-16.38 4.29c.23-52.51-47.72-47-47.72-47 30 20.61 28.24 41.92 23.75 53.86a72.83 72.83 0 0 1-10 4.85c-3 1.22-6.34 2.4-9.94 3.55q-2.69.87-5.6 1.73-5.81 1.72-12.43 3.44c-8 2.09-35.27-1.91-67.09-4.77-38.63-3.47-63 4.06-95.14-24.9-.12-.11-18.81 7.09-36.81-.61-8.07-3.45-21.7-12.11-33.42-30.9-16.45-26.36-25-42.25-41.66-74 0 0 42.35 1.7 64.38-21.65 25.82-27.38 16.94-83.38 16.94-83.38-11.62 15.34-42.78 56.63-59.29 57.6-11.69.69-35.2 4.58-50.35-1.83-7.59-13.42-33.72-55.11-44.39-69.85 33.33-.58 60.36-15.07 60.36-15.07 40.17-26.36 58-124.77 58-124.77s-77.18 93.1-159.74 68.21c-8.64-10.18-94.08-141.24-97.79-149.94l-24.28-175.06c-2.36 20.11-27.15 179.58-27.15 179.58 1.25 8.47 57.08 76.8 57.08 76.8s-34.85 18.16-67.2 18.07c-29.42-22.57-85.36-41.15-85.36-41.15-2.57-18.33-25.18-70.52-40.82-108.89s-74.74-140.23-74.74-140.23c4 32.47 43.87 146.09 43.87 146.09-3.58 28.68 1.72 97.12 3.66 119.88a13.94 13.94 0 0 0 7.19 11c22.57 12.34 43.2 19 57.24 27.3-22.78 2.69-41.75 5-50.2 6.85-7.75 1.66-53.78 13.7-70.82 18.67-40.5-2.67-71.57-16-78.19-19.83-3.31-1.9-2.28-5.66-2.78-9.45-5.51-41.82-21.52-105.3-22.88-114.36-.66-4.41-.52-8.87-3.52-12.17-39.15-43-58.91-96.8-58.91-96.8l21.6 78.16c26.95 64.46 26.8 98 25.41 114-1 11.3-10.75 31.58-16.41 42.54a8.41 8.41 0 0 0 3.47 11.23c18.82 10.33 39.6 28.57 51.86 40.08-4 1.21-8 2.34-12 3.38l-2.24.58a339.56 339.56 0 0 1-48.75 8.65q-3.8.39-7.51.69-7.41.59-14.44.84-3.51.13-6.92.18c-45.47.73-77.26-8-88.58-8.5-18.1-.84-86.81-24.19-107.33-30-2.56-.73-5.05-1.42-7.49-2.07l-3.62-.95c-2.39-.61-4.75-1.17-7.1-1.67q-1.76-.38-3.52-.71c-2.35-.45-4.7-.84-7.09-1.15q-1.79-.24-3.61-.42a119.18 119.18 0 0 0-23.92.07q-2.23.22-4.56.51l-2.47.33c-5.94.81-13.93 2.07-22.76 3.54l-78.46-168.66c-2.25 34.25 3.74 146.61 5.75 181.82l-.54.1-.51.12h-.12c-3 .82-17.4 5.69-53.83 30.88-.9.62-1.86 1.34-2.87 2.11l-.71.54c-1 .79-2.07 1.64-3.18 2.56l-.36.31c-1 .87-2.12 1.81-3.25 2.8l-.82.72c-1.22 1.09-2.49 2.23-3.8 3.44l-.69.64q-1.76 1.63-3.62 3.4l-.91.86q-2.12 2-4.36 4.22l-.94.93q-2 2-4.1 4.07l-.86.86q-2.37 2.38-4.84 4.92l-1.22 1.26q-2.26 2.32-4.58 4.74l-.69.71c-1.74 1.82-3.52 3.69-5.32 5.58l-1.35 1.43c-1.78 1.88-3.57 3.79-5.41 5.75l-.19.21c-1.9 2-3.83 4.11-5.78 6.22l-1.4 1.52q-2.89 3.14-5.85 6.36l-.69.76-5.52 6.06-1.42 1.56-6.07 6.72-1.18 1.31-5.45 6.07-1.33 1.49-6.3 7.06-1.33 1.5-5.68 6.4-1.12 1.26-6.49 7.37-1.4 1.6-6.12 7-.64.73-1.06 1.21a751.59 751.59 0 0 0-36.78-65.57c-27-43.23-21.08-101.77-16.32-122s9.81-60.69 12-73.56-3.75-61.59-10.4-91.15-13.58-64.62-9.92-89 12.34-68.05 14.66-72c0 0-30.4 24.73-44.79 97.79s-2.93 112.53-2.93 112.53 15.47 46.24 11.59 74.08-10 47.31-16.72 98.26 17.39 100.5 19.26 103.36c1.52 2.32 28.75 55.18 39 75.11l-1.86 2.16-.66.77-6.25 7.3-.81.95-6.72 7.86-.4.47-6.23 7.3-.78.91-2.79 3.25c-12.08 2.34-44.5 5.46-75.77-19.14-39.42-31-48.74-113.52-48.74-113.52s-24.52 81.31 6.12 147c22.73 48.77 43.15 60.6 52.18 63.47h.1c-50.4 58.94-72 70.2-86.45 91.85s-34.68 63.85-60.27 119.73-16 96.94-16 96.94l.62.23c3.66 1.38 8.39 2.31 13.64 4.36h.09c.83.32 1.66.69 2.51 1.08l.37.16c.78.37 1.58.78 2.38 1.21l.56.29c.76.42 1.52.9 2.29 1.39l.7.44c.73.49 1.47 1 2.21 1.6.27.2.54.38.8.6.71.57 1.43 1.21 2.14 1.85.3.27.59.5.89.78.69.65 1.38 1.39 2.07 2.12.32.34.64.64 1 1 .68.76 1.34 1.6 2 2.44.33.41.66.78 1 1.21.67.88 1.32 1.85 2 2.82.33.48.66.91 1 1.41.69 1.06 1.36 2.23 2 3.4.29.5.58.94.87 1.46 1 1.73 1.9 3.57 2.84 5.55a76.71 76.71 0 0 1 4.18 10.61c.47 1.56.83 3 1.11 4.38.14.68.25 1.34.34 2a27 27 0 0 1 .22 5.18q0 .75-.12 1.45c-1 7.9-6.31 10.12-8.31 10.69h-.14a6.12 6.12 0 0 1-.61.13s-7.83 2.4-20 6c-7.35-45.12-55.61-53.57-55.61-53.57 26.08 32.43 32.21 50.51 32.22 60.35-12.58 3.58-26.65 7.49-40.46 11.11-13.58 3.56-26.9 6.84-38.28 9.26-45.52 9.69-54.64-55-54.64-55a29.33 29.33 0 0 1-12.67-14.32q-.57-1.38-1-2.79c-2.66-8.47-1.93-17.7-.69-24.94v-.12c.06-.35.14-.75.24-1.22l.15-.67.24-1.08.23-1 .29-1.19.3-1.18.33-1.3.37-1.42.35-1.32.48-1.79.09-.32c.75-2.78 1.62-5.94 2.6-9.38l.15-.54 1-3.4.15-.53 1.08-3.74.08-.26c10.65-36.73 29.69-97.15 45.33-136.7 22.18-56.1 23-121.15 38.06-136.26s36.13-28.46 44.94-37.48 14-36.08 32.79-92.41 63.18-164.08 76.3-186.52 26-67.16 31.74-92.14 4.27-86.06 7.88-114.94 32.3-60.86 42.35-81.51c7.43-15.25 7-28 2.17-38.59a43.75 43.75 0 0 0-2.35-4.42c-.2-.33-.4-.66-.6-1-.82-1.31-1.7-2.58-2.64-3.82l-.23-.31c-1-1.34-2.17-2.64-3.34-3.9l-.74-.77c-1-1.07-2.07-2.1-3.17-3.09l-.61-.57q-1.93-1.73-4-3.34l-.69-.53c-1.05-.82-2.11-1.63-3.22-2.38l-1.23-.86q-2.14-1.47-4.32-2.83l-.2-.12c-1.39-.86-2.78-1.68-4.17-2.47l-1-.54c-1.42-.8-2.84-1.57-4.24-2.29-1.45-.75-2.89-1.46-4.3-2.15l-.9-.43c-1.19-.57-2.35-1.11-3.49-1.63l-.58-.27q-2-.88-3.77-1.67l-.77-.33-2.92-1.25-.67-.28-3.17-1.33-2.06-.78-.63-.27c-.74-.32-1.42-.62-2-.89-13.45-6.54-118.37-67.89-178.87-113.23S96.44 521.1 62.59 449.5a381 381 0 0 1-23.63-64.7 64 64 0 0 0 10.66 3c16.67 3.3 48.36 9.68 69.22 16.79a3.16 3.16 0 0 0 1.53.18c2 3.83 3.33 6.09 3.33 6.09 6.88 12.53 14.2 24.6 21.87 36.28-17.15 7.49-39.32 28.78-43.28 35.55-4.63 7.92-12 31.08 26.45 19.89 25.29-7.36 44.61-5.9 54.89-4.05a640.34 640.34 0 0 0 53.85 57.21c-8.08 7.71-25.89 28.88-21.42 62.55 5.73 43.2 28.44 10.43 28.44 10.43s23.74-21.33 40.12-32.33c21.14 16.71 42.24 31.55 62.52 44.61-11 17.7-31.18 61.2 1.45 103.5 0 0 10.88 11.68 19.67-23 5.39-21.27 20.56-38.81 31.5-49.2l-.16-.09h.09c26.65 14.57 50 25.51 67.66 33.14-1.91 14.8-7.52 62.72-2.91 80.32 5.48 20.91 12.53 18 12.53 18s11.23-4.06 40.49-37.43c18.69-21.32 29.72-28.32 37.19-34.31 26.73 5.09 57.78 8.62 78.12 3.29a41.18 41.18 0 0 0 11.42-4.69c8.62-5.4 18.48-11.43 29.39-17.9-5 11.37-15.7 37.92-20.92 66.25-6.84 37.13-1.37 75.4-1.24 76.31 0 .91.67 36.74.72 41.14s20 76.35 28.07 94.35 13.95 27.64 19.43 48.56 16.64 80.58 14.2 96.86 12.67-15.61 13.29-30.31-3.89-66-14.35-110.24-8-77.27-13.81-108.14-12.16-54.93-3-84.14c8.19-26.27 21.88-81.91 56.63-134.64 13.65-7.1 27.87-14.24 42.51-21.25q4.36-2.09 8.9-4.18c-2.58 35.8-9.33 136.62-5 156.56 5.26 24.33 55.59 92.73 99.69 120.29s140.63 123 145.78 138.39c0 0 2.79-32-47.22-94.92s-47.84-33.29-105.72-143.3c0 0-19.95-24.95-18.19-77.94 1.44-43.43 8.86-104.16 16.86-134.69 37.56-14.25 71.92-26.08 89.76-32.11 2.84-1 7.76-2.35 14.39-4.08l3.59-.93c-6.61 18.06-27.57 78.49-25 112.48 3 40.28 54.94 145.7 54.94 145.7l53.78 77.28s-28.29-101.56-32.1-125.7-9.12-76.4-5.26-100c3.37-20.63 22.31-93.8 33.82-128.94 28.7-6.66 60.69-14 92-21.06l-9.56 101.09s21 161 31.12 178.49 72.76 111.58 88.22 136.58 33.42 33.71 33.42 33.71-12.85-23.46-25.31-58.19-41.5-98.65-51.39-162-20.43-90.76-18-111.51 24.59-98.09 25.86-101.77c.81-2.34 7.46-22 12.2-36.06 38.58-8.69 67.16-15.15 72.9-16.66a7.71 7.71 0 0 0 1-.31c.43-.28 5.09-1.57 12.26-3.44l8-2.07-7.55 150s-5.37 34.94 15.27 75.35 91.92 129 91.92 129l59.89 79.3s-11.11-55.2-38-115.21-29.49-57.1-29.49-57.1-33.62-51.54-38.28-69.32 0-89.42.27-92.83c.17-2.65 9.48-81.33 13.61-116.21l22.13-5.47 60.58-69.52 88.27-23.13c-14.86 42.59-27.42 109.85-22.46 197.55 10.15 179.51 85.24 257.07 85.24 257.07s-48.6-194-43-274.85c0 0 30.24 77 72.3 109.58s49 63.17 49 63.17 10.63-10.61-8.59-41.34-32.53-47.36-55.91-98.23-38.43-82.69-29.4-142.06c7.76-51 20.22-115.58 42.29-153.27 1.94-1.68 3.7-3.19 5.22-4.46 22.47-18.74 86.18-55 123.45-74.81 30.5-16.22 62.83-25.44 73.58-28.26 2.39-.63 3.71-.94 3.71-.94 9.06-8.69 18.33-17.27 27.61-25.44q2.6-2.28 5.2-4.52l2.95-2.51 3.08-2.6 2.93-2.44 3.41-2.78 2.52-2q2.74-2.19 5.46-4.3l2.37-1.81q1.84-1.41 3.67-2.77l2.38-1.76q2.15-1.57 4.28-3.07l1.57-1.12c1.65-1.15 3.28-2.25 4.91-3.33-12.37 58.67 13.71 88.24 13.71 88.24-11.55-33.17 21-93.45 30.91-110.53 1.11-.49 2.28-1 3.35-1.46 3.3-1.5 6.41-3 9.32-4.48q2.19-1.1 4.22-2.18c13.55-7.15 21.91-13.05 23.22-13.4l.37-.13 1.68-.69.84-.35c8.32-3.49 32.91-14 53.67-19.4 10.63-2.78 20.26-4.25 26.18-2.78 19.72 4.89 28.66 7 28.66 7 17.89-11.79 30.08-17.18 43.11-20.59 8.48-2.22 17.32-3.61 28.31-5.39 27.88-4.51 40.95-7.94 40.95-7.94 15 2.54 17.82 8.26 18.35 10.16-.84.89-1.72 1.75-2.6 2.58-.51.43-1 .91-1.65 1.51-14.29 12.59-33.36 18.77-44.19 21.46a21.58 21.58 0 0 0-3.58.53 5.28 5.28 0 0 0-1.55.63c.68-.14 1.45-.3 2.31-.49-3.51.78-5.64 1.1-5.64 1.1a47.37 47.37 0 0 0 9.29 6.21c-4.4-.08-34.36 1.06-54.77 45.94 0 0-1.6 24.27 14.79 39.38 6.54 6 12.84 9.51 18.21 11-17.74 20.76-50.4 69.09-50.42 143.61" class="cls-4"/><path d="M2086.91 271.15c-17.45 7.67-53.68-51.31-53.68-51.31 17.08 84.38 81 88.87 81 88.87-12.16-54.93 13.21-107.4 20.7-117.19s.57-19.15.57-19.15c-51.74 62.73-43.73 87.45-48.58 98.78M2034.3 289.39c-9.12-17.73-44.56-67.68-45.48-79.73s-.95 9.19-.95 9.19 5.18 41.11 31.33 81.2 27.87 76.52 27.87 76.52 46.94 0 78.39 21.93 43.06 27.83 43.06 27.83-1.52-18.6-50.18-55-74.93-64.19-84-81.92M2284.36 37.52v.01-.01" class="cls-3"/><path d="M2292.65 374.87c2.82-6.82 3.84-8.55 5.26-8.71s4.29 6.32 2.68 15a148.43 148.43 0 0 1-8.19 28.92 35.41 35.41 0 0 0 11.13-1.66c3.09-1 21.1-24.34 23.61-32.33s3.63-4.56 3.63-4.56c3.53 20-8.56 37.62-15.06 45.41a18.52 18.52 0 0 1-9.41 6.05c-8 1.76-21.1 5.3-23.59 5.13a32.93 32.93 0 0 1-10 1c-7.48-.55-9.94-5.15-10.41-7.75s-.25-5 2.89-9.77c0 0 24.64-29.93 27.46-36.74M2265.68 375.19s-.89 17.42-8.88 23.7-17.72-2.06-21.1-5.37-36.2-58-36.2-58l-1.48-8.83s10.11-14.39 37.68 23.66c0 0 21.76 28.67 30 24.84" class="cls-4"/><path d="M2280.82 40.99c-.3.27-.59.55-.89.81.3-.26.59-.54.89-.81M2235.61 63.32c-1 .24-1.89.46-2.72.64l2.72-.64" class="cls-3"/><path d="M2312.41 170.9c-1.6 15.23-4.08 10-5.23 6.68s-1.76-24-11.89-32.77a11.51 11.51 0 0 0-7.55 5.33c4.59 9.9 7.62 23 8.72 36.67 1.37 17-2.91 12.87-2.91 12.87-9.45-32.35-43.91-43.35-43.91-43.35 4.81-4 10.31-8.21 16-12.21 19.69-12.88 34.39-18.37 43-20.69 6.85 21.27 5.05 36 3.85 47.46M2312.22 100.81c0 .25.1.52.14.76a15.05 15.05 0 0 1 .17 2.06 20.16 20.16 0 0 1-.11 2v.27-.32c-10.81 5.79-33 14.17-51.76 26.43-14 9.16-22.44 14.8-27.48 18.28 4.7-16.45 10.89-29.72 26.13-44.26a62.8 62.8 0 0 0-36.88 25.59s5.7-26.22 24.79-43c0 0-16.92-.59-43.93 37.08 0 0-7.11-19.19 33.63-54.37 19.52 9.92 46 8.37 58.09.94l.21-.12.24-.16a18.55 18.55 0 0 0 3.18-2.49l-.1.09.39.69.42.75.72 1.3.44.81.88 1.63.4.74a132 132 0 0 1 1.12 2.12l.25.48c1 1.85 1.94 3.81 2.9 5.82l.15.31q.61 1.3 1.21 2.61l.36.82q.47 1.06.92 2.11c.14.34.27.67.41 1 .26.64.51 1.26.75 1.89l.4 1.06c.22.59.42 1.17.61 1.74.12.35.23.7.34 1 .18.56.32 1.1.47 1.63.09.32.18.65.25 1 .13.55.23 1.07.32 1.59M2020.54 695.16s49.15 56.52 70.76 75.33 55.86 53.15 108 59.35 95.1 32.18 95.1 32.18 69.66 49.73 106.87 94c0 0 28.42 15 76.5 14.43 40.52-.47 64.06 15 63.1 50.31-.8 29.72-78.59 43.34-111.73 47.17s-30.49-18.27-65.95-10.73-59.91 14-80.16-15.59-67.44-30.72-97-34-244.61-49.92-244.61-49.92 39.85-85.67 51.7-165.62c9.82-66.23 27.41-96.93 27.41-96.93" class="cls-4"/><path d="M1990.96 975s31.17-16.9 43.79-33 31.34-64.52 37.55-107.47c2.34 5 25.16 46.39 28 101.42a39.85 39.85 0 0 1-8.58 26.77c-7 8.86-17.42 20.55-28.16 27.5ZM2118.78 997.86s32.21-31.31 35.74-45.62-3.83-61.11-3.83-61.11 36 56.15 30.09 80.13c-2.3 9.38-17.65 34.86-17.65 34.86ZM2476.42 1063.86s20.75-13.75 1.09-49.08c0 0 32.49 15.42 25.21 41.83ZM2103.61 120.85c-6.8 21.19-33.14 19.51-39.42 3.37-5.59-1.34-19.32 8.77-23.1 13.41 7.41-18.25 27.44-29.79 40.49-26.87s27.93 3.79 38.27.3c0 0-10.82 7.28-16.25 9.79" class="cls-3"/></g></svg>